<svg xmlns="http://www.w3.org/2000/svg" width="1440" height="900" viewBox="0 0 1440 900" role="img" aria-labelledby="title desc">
  <title id="title">GARIM 관리자 사용자 결제 확인 화면 목업</title>
  <desc id="desc">정책 및 상품 관리 아래에 추가될 사용자 결제 확인 관리자 화면 예상 이미지</desc>
  <defs>
    <filter id="shadow" x="-20%" y="-20%" width="140%" height="140%">
      <feDropShadow dx="0" dy="8" stdDeviation="14" flood-color="#1f2937" flood-opacity="0.10"/>
    </filter>
    <style>
      .bg { fill: #f7f8fb; }
      .side { fill: #1e1b3a; }
      .side-muted { fill: rgba(255,255,255,0.54); }
      .side-text { fill: rgba(255,255,255,0.86); font: 500 14px 'Pretendard', 'Noto Sans KR', Arial, sans-serif; }
      .side-section { fill: rgba(255,255,255,0.48); font: 700 11px 'Pretendard', 'Noto Sans KR', Arial, sans-serif; letter-spacing: 1px; }
      .active-fill { fill: rgba(149,117,205,0.24); }
      .active-text { fill: #c4b5fd; font: 700 14px 'Pretendard', 'Noto Sans KR', Arial, sans-serif; }
      .title { fill: #111827; font: 700 30px 'Pretendard', 'Noto Sans KR', Arial, sans-serif; }
      .subtitle { fill: #6b7280; font: 400 15px 'Pretendard', 'Noto Sans KR', Arial, sans-serif; }
      .card { fill: #fff; stroke: #e5e7eb; stroke-width: 1; filter: url(#shadow); }
      .plain-card { fill: #fff; stroke: #e5e7eb; stroke-width: 1; }
      .metric-label { fill: #6b7280; font: 600 12px 'Pretendard', 'Noto Sans KR', Arial, sans-serif; letter-spacing: .3px; }
      .metric-num { fill: #111827; font: 800 28px 'Pretendard', 'Noto Sans KR', Arial, sans-serif; }
      .metric-sub { fill: #6b7280; font: 500 12px 'Pretendard', 'Noto Sans KR', Arial, sans-serif; }
      .toolbar-label { fill: #374151; font: 600 13px 'Pretendard', 'Noto Sans KR', Arial, sans-serif; }
      .input { fill: #fff; stroke: #d1d5db; stroke-width: 1; }
      .input-text { fill: #9ca3af; font: 500 13px 'Pretendard', 'Noto Sans KR', Arial, sans-serif; }
      .table-head { fill: #f9fafb; }
      .th { fill: #6b7280; font: 800 12px 'Pretendard', 'Noto Sans KR', Arial, sans-serif; letter-spacing: .5px; }
      .td { fill: #1f2937; font: 500 13px 'Pretendard', 'Noto Sans KR', Arial, sans-serif; }
      .td-muted { fill: #6b7280; font: 500 12px 'Pretendard', 'Noto Sans KR', Arial, sans-serif; }
      .mono { fill: #4b5563; font: 500 12px 'Consolas', 'SFMono-Regular', monospace; }
      .chip { font: 700 12px 'Pretendard', 'Noto Sans KR', Arial, sans-serif; }
      .btn { fill: #1976d2; }
      .btn-text { fill: #fff; font: 700 13px 'Pretendard', 'Noto Sans KR', Arial, sans-serif; }
      .outline-btn { fill: #fff; stroke: #d1d5db; stroke-width: 1; }
      .outline-text { fill: #374151; font: 700 12px 'Pretendard', 'Noto Sans KR', Arial, sans-serif; }
      .detail-title { fill: #111827; font: 800 18px 'Pretendard', 'Noto Sans KR', Arial, sans-serif; }
      .detail-label { fill: #6b7280; font: 600 12px 'Pretendard', 'Noto Sans KR', Arial, sans-serif; }
      .detail-value { fill: #111827; font: 700 14px 'Pretendard', 'Noto Sans KR', Arial, sans-serif; }
      .line { stroke: #e5e7eb; stroke-width: 1; }
    </style>
  </defs>

  <rect class="bg" width="1440" height="900"/>

  <!-- Sidebar -->
  <rect class="side" x="0" y="0" width="236" height="900"/>
  <circle cx="34" cy="36" r="12" fill="#1976d2"/>
  <circle cx="43" cy="36" r="12" fill="#7c3aed" opacity=".9"/>
  <text x="64" y="42" class="side-text" style="font-size:18px;font-weight:800">Garim Admin</text>

  <text x="20" y="92" class="side-section">운영</text>
  <text x="52" y="125" class="side-text">사용량 모니터링</text>
  <text x="24" y="126" class="side-muted" style="font: 18px Arial">●</text>
  <text x="52" y="163" class="side-text">처리 큐</text>
  <text x="24" y="164" class="side-muted" style="font: 18px Arial">●</text>
  <text x="52" y="201" class="side-text">컴플라이언스</text>
  <text x="24" y="202" class="side-muted" style="font: 18px Arial">●</text>

  <text x="20" y="255" class="side-section">시스템</text>
  <text x="52" y="288" class="side-text">사용자</text>
  <text x="24" y="289" class="side-muted" style="font: 18px Arial">●</text>
  <text x="52" y="326" class="side-text">분석</text>
  <text x="24" y="327" class="side-muted" style="font: 18px Arial">●</text>
  <text x="52" y="364" class="side-text">정책 및 상품 관리</text>
  <text x="24" y="365" class="side-muted" style="font: 18px Arial">●</text>
  <rect class="active-fill" x="10" y="384" width="216" height="42" rx="6"/>
  <text x="52" y="411" class="active-text">사용자 결제 확인</text>
  <text x="24" y="412" fill="#c4b5fd" style="font: 18px Arial">●</text>

  <!-- Main -->
  <g transform="translate(236 0)">
    <rect x="0" y="0" width="1204" height="900" fill="#fafafa"/>
    <text x="32" y="56" class="title">사용자 결제 확인</text>
    <text x="32" y="84" class="subtitle">사용자별 결제 내역, 구독 상태, 크레딧 충전 이력을 검색하고 확인합니다.</text>

    <!-- Metrics -->
    <g transform="translate(32 116)">
      <rect class="plain-card" x="0" y="0" width="268" height="104" rx="8"/>
      <text x="20" y="32" class="metric-label">오늘 결제 금액</text>
      <text x="20" y="68" class="metric-num">₩ 428,000</text>
      <text x="190" y="68" class="metric-sub">+12.4%</text>

      <rect class="plain-card" x="288" y="0" width="268" height="104" rx="8"/>
      <text x="308" y="32" class="metric-label">승인 완료</text>
      <text x="308" y="68" class="metric-num">38건</text>
      <text x="390" y="68" class="metric-sub">구독 18 · 크레딧 20</text>

      <rect class="plain-card" x="576" y="0" width="268" height="104" rx="8"/>
      <text x="596" y="32" class="metric-label">환불/취소</text>
      <text x="596" y="68" class="metric-num">3건</text>
      <text x="650" y="68" class="metric-sub">확인 필요 1건</text>

      <rect class="plain-card" x="864" y="0" width="268" height="104" rx="8"/>
      <text x="884" y="32" class="metric-label">크레딧 충전</text>
      <text x="884" y="68" class="metric-num">12,400개</text>
      <text x="1000" y="68" class="metric-sub">이번 달 누적</text>
    </g>

    <!-- Toolbar -->
    <g transform="translate(32 252)">
      <rect class="card" x="0" y="0" width="1132" height="96" rx="8"/>
      <text x="20" y="32" class="toolbar-label">결제 내역 검색</text>
      <rect class="input" x="20" y="46" width="300" height="38" rx="5"/>
      <text x="36" y="70" class="input-text">이메일, 주문번호, 결제키 검색</text>

      <rect class="input" x="336" y="46" width="140" height="38" rx="5"/>
      <text x="352" y="70" class="input-text">전체 상품</text>
      <rect class="input" x="488" y="46" width="140" height="38" rx="5"/>
      <text x="504" y="70" class="input-text">전체 상태</text>
      <rect class="input" x="640" y="46" width="180" height="38" rx="5"/>
      <text x="656" y="70" class="input-text">2026.06.01 - 06.08</text>
      <rect class="input" x="832" y="46" width="88" height="38" rx="5"/>
      <text x="850" y="70" class="input-text">20개</text>
      <rect class="btn" x="940" y="46" width="92" height="38" rx="5"/>
      <text x="965" y="70" class="btn-text">검색</text>
      <rect class="outline-btn" x="1044" y="46" width="88" height="38" rx="5"/>
      <text x="1065" y="70" class="outline-text">초기화</text>
    </g>

    <!-- Table and Detail -->
    <g transform="translate(32 376)">
      <rect class="card" x="0" y="0" width="820" height="470" rx="8"/>
      <rect class="table-head" x="0" y="0" width="820" height="46" rx="8"/>
      <line class="line" x1="0" y1="46" x2="820" y2="46"/>
      <text x="20" y="29" class="th">결제일</text>
      <text x="126" y="29" class="th">사용자</text>
      <text x="302" y="29" class="th">상품</text>
      <text x="438" y="29" class="th">금액</text>
      <text x="546" y="29" class="th">상태</text>
      <text x="664" y="29" class="th">관리</text>

      <!-- rows -->
      <g transform="translate(0 46)">
        <rect x="0" y="0" width="820" height="64" fill="#eef6ff"/>
        <text x="20" y="25" class="td">2026.06.08</text>
        <text x="20" y="44" class="td-muted">14:22</text>
        <text x="126" y="25" class="td">kim@garm.kr</text>
        <text x="126" y="44" class="mono">usr_92ad</text>
        <text x="302" y="25" class="td">Pro 구독</text>
        <text x="302" y="44" class="td-muted">subscription</text>
        <text x="438" y="33" class="td">₩ 2,900</text>
        <rect x="546" y="18" width="68" height="24" rx="12" fill="#dcfce7"/>
        <text x="562" y="34" class="chip" fill="#166534">승인</text>
        <rect class="outline-btn" x="664" y="16" width="70" height="30" rx="4"/>
        <text x="683" y="36" class="outline-text">상세</text>
      </g>

      <g transform="translate(0 110)">
        <line class="line" x1="0" y1="0" x2="820" y2="0"/>
        <text x="20" y="25" class="td">2026.06.08</text>
        <text x="20" y="44" class="td-muted">13:10</text>
        <text x="126" y="25" class="td">lee@example.com</text>
        <text x="126" y="44" class="mono">usr_72fa</text>
        <text x="302" y="25" class="td">500 Credits</text>
        <text x="302" y="44" class="td-muted">credit</text>
        <text x="438" y="33" class="td">₩ 20,000</text>
        <rect x="546" y="18" width="68" height="24" rx="12" fill="#dcfce7"/>
        <text x="562" y="34" class="chip" fill="#166534">승인</text>
        <rect class="outline-btn" x="664" y="16" width="70" height="30" rx="4"/>
        <text x="683" y="36" class="outline-text">상세</text>
      </g>

      <g transform="translate(0 174)">
        <line class="line" x1="0" y1="0" x2="820" y2="0"/>
        <text x="20" y="25" class="td">2026.06.08</text>
        <text x="20" y="44" class="td-muted">11:35</text>
        <text x="126" y="25" class="td">park@garim.kr</text>
        <text x="126" y="44" class="mono">usr_a11c</text>
        <text x="302" y="25" class="td">Studio 구독</text>
        <text x="302" y="44" class="td-muted">subscription</text>
        <text x="438" y="33" class="td">₩ 19,800</text>
        <rect x="546" y="18" width="78" height="24" rx="12" fill="#fef3c7"/>
        <text x="560" y="34" class="chip" fill="#92400e">대기</text>
        <rect class="outline-btn" x="664" y="16" width="70" height="30" rx="4"/>
        <text x="683" y="36" class="outline-text">상세</text>
      </g>

      <g transform="translate(0 238)">
        <line class="line" x1="0" y1="0" x2="820" y2="0"/>
        <text x="20" y="25" class="td">2026.06.07</text>
        <text x="20" y="44" class="td-muted">18:04</text>
        <text x="126" y="25" class="td">choi@example.com</text>
        <text x="126" y="44" class="mono">usr_5c21</text>
        <text x="302" y="25" class="td">100 Credits</text>
        <text x="302" y="44" class="td-muted">credit</text>
        <text x="438" y="33" class="td">₩ 5,000</text>
        <rect x="546" y="18" width="78" height="24" rx="12" fill="#fee2e2"/>
        <text x="558" y="34" class="chip" fill="#991b1b">취소</text>
        <rect class="outline-btn" x="664" y="16" width="70" height="30" rx="4"/>
        <text x="683" y="36" class="outline-text">상세</text>
      </g>

      <line class="line" x1="0" y1="398" x2="820" y2="398"/>
      <text x="20" y="433" class="td-muted">1-20 / 126</text>
      <rect class="outline-btn" x="650" y="414" width="68" height="32" rx="4"/>
      <text x="673" y="435" class="outline-text">이전</text>
      <rect class="outline-btn" x="728" y="414" width="68" height="32" rx="4"/>
      <text x="751" y="435" class="outline-text">다음</text>

      <!-- Detail panel -->
      <rect class="card" x="852" y="0" width="280" height="470" rx="8"/>
      <text x="876" y="36" class="detail-title">결제 상세</text>
      <rect x="876" y="56" width="92" height="26" rx="13" fill="#dbeafe"/>
      <text x="893" y="74" class="chip" fill="#1d4ed8">선택됨</text>
      <line class="line" x1="876" y1="100" x2="1108" y2="100"/>

      <text x="876" y="128" class="detail-label">주문번호</text>
      <text x="876" y="151" class="detail-value">ord_20260608_1422</text>
      <text x="876" y="188" class="detail-label">결제 키</text>
      <text x="876" y="211" class="mono">pay_8fb2...91ac</text>
      <text x="876" y="248" class="detail-label">사용자</text>
      <text x="876" y="271" class="detail-value">kim@garm.kr</text>
      <text x="876" y="308" class="detail-label">상품</text>
      <text x="876" y="331" class="detail-value">Pro 구독 · 50 크레딧</text>
      <text x="876" y="368" class="detail-label">영수증</text>
      <rect class="outline-btn" x="876" y="384" width="104" height="34" rx="5"/>
      <text x="899" y="406" class="outline-text">열기</text>
      <rect class="btn" x="988" y="384" width="96" height="34" rx="5"/>
      <text x="1012" y="406" class="btn-text">환불 처리</text>
    </g>
  </g>
</svg>
