<svg xmlns="http://www.w3.org/2000/svg" width="1440" height="900" viewBox="0 0 1440 900" role="img" aria-labelledby="title desc">
  <title id="title">GARIM 관리자 사용자 결제 확인 화면 목업 v3</title>
  <desc id="desc">정책 및 상품 관리 페이지와 같은 표/툴바 결을 유지한 사용자 결제 확인 화면 목업</desc>
  <defs>
    <style>
      .bg { fill: #fafafa; }
      .side { fill: #1e1b3a; }
      .side-text { fill: rgba(255,255,255,0.86); font: 500 14px 'Pretendard','Noto Sans KR',Arial,sans-serif; }
      .side-section { fill: rgba(255,255,255,0.5); font: 700 11px 'Pretendard','Noto Sans KR',Arial,sans-serif; letter-spacing: 1px; }
      .active-fill { fill: rgba(149,117,205,0.22); }
      .active-text { fill: #c4b5fd; font: 700 14px 'Pretendard','Noto Sans KR',Arial,sans-serif; }
      .title { fill: #111827; font: 700 24px 'Pretendard','Noto Sans KR',Arial,sans-serif; }
      .subtitle { fill: #64748b; font: 400 13px 'Pretendard','Noto Sans KR',Arial,sans-serif; }
      .tabs-bg { fill: #fff; stroke: #d1d5db; stroke-width: 1; }
      .tab-active { fill: #1976d2; }
      .tab-active-text { fill: #fff; font: 700 12px 'Pretendard','Noto Sans KR',Arial,sans-serif; }
      .tab-text { fill: #64748b; font: 600 12px 'Pretendard','Noto Sans KR',Arial,sans-serif; }
      .card { fill: #fff; stroke: #d1d5db; stroke-width: 1; }
      .card-title { fill: #111827; font: 800 15px 'Pretendard','Noto Sans KR',Arial,sans-serif; }
      .card-sub { fill: #64748b; font: 400 12px 'Pretendard','Noto Sans KR',Arial,sans-serif; }
      .metric-label { fill: #64748b; font: 700 11px 'Pretendard','Noto Sans KR',Arial,sans-serif; }
      .metric-num { fill: #0f172a; font: 900 24px 'Pretendard','Noto Sans KR',Arial,sans-serif; }
      .metric-sub { fill: #64748b; font: 600 11px 'Pretendard','Noto Sans KR',Arial,sans-serif; }
      .btn { fill: #1976d2; }
      .btn-text { fill: #fff; font: 800 12px 'Pretendard','Noto Sans KR',Arial,sans-serif; }
      .input { fill: #fff; stroke: #cfd6e1; stroke-width: 1; }
      .input-text { fill: #94a3b8; font: 500 12px 'Pretendard','Noto Sans KR',Arial,sans-serif; }
      .select-text { fill: #334155; font: 600 12px 'Pretendard','Noto Sans KR',Arial,sans-serif; }
      .th { fill: #334155; font: 800 12px 'Pretendard','Noto Sans KR',Arial,sans-serif; }
      .td { fill: #0f172a; font: 600 12px 'Pretendard','Noto Sans KR',Arial,sans-serif; }
      .td-muted { fill: #64748b; font: 500 11px 'Pretendard','Noto Sans KR',Arial,sans-serif; }
      .mono { fill: #475569; font: 500 11px 'Consolas','SFMono-Regular',monospace; }
      .line { stroke: #e5e7eb; stroke-width: 1; }
      .head-row { fill: #f8fafc; }
      .chip { font: 800 11px 'Pretendard','Noto Sans KR',Arial,sans-serif; }
      .outline { fill: #fff; stroke: #cbd5e1; stroke-width: 1; }
      .outline-text { fill: #334155; font: 700 11px 'Pretendard','Noto Sans KR',Arial,sans-serif; }
    </style>
  </defs>

  <rect class="bg" width="1440" height="900"/>

  <rect class="side" x="0" y="0" width="236" height="900"/>
  <circle cx="34" cy="36" r="12" fill="#1976d2"/>
  <circle cx="43" cy="36" r="12" fill="#7c3aed"/>
  <text x="64" y="42" class="side-text" style="font-size:18px;font-weight:900">Garim Admin</text>

  <text x="20" y="92" class="side-section">운영</text>
  <text x="52" y="126" class="side-text">사용량 모니터링</text>
  <text x="24" y="127" fill="rgba(255,255,255,.55)" style="font:18px Arial">●</text>
  <text x="52" y="164" class="side-text">처리 큐</text>
  <text x="24" y="165" fill="rgba(255,255,255,.55)" style="font:18px Arial">●</text>
  <text x="52" y="202" class="side-text">컴플라이언스</text>
  <text x="24" y="203" fill="rgba(255,255,255,.55)" style="font:18px Arial">●</text>

  <text x="20" y="256" class="side-section">시스템</text>
  <text x="52" y="290" class="side-text">사용자</text>
  <text x="24" y="291" fill="rgba(255,255,255,.55)" style="font:18px Arial">●</text>
  <text x="52" y="328" class="side-text">분석</text>
  <text x="24" y="329" fill="rgba(255,255,255,.55)" style="font:18px Arial">●</text>
  <text x="52" y="366" class="side-text">정책 및 상품 관리</text>
  <text x="24" y="367" fill="rgba(255,255,255,.55)" style="font:18px Arial">●</text>
  <rect class="active-fill" x="10" y="386" width="216" height="42" rx="6"/>
  <text x="52" y="413" class="active-text">사용자 결제 확인</text>
  <text x="24" y="414" fill="#c4b5fd" style="font:18px Arial">●</text>

  <g transform="translate(236 0)">
    <rect x="0" y="0" width="1204" height="900" fill="#fafafa"/>

    <text x="24" y="48" class="title">사용자 결제 확인</text>
    <text x="24" y="74" class="subtitle">사용자별 결제 내역, 구독 상태, 크레딧 충전 이력을 확인합니다.</text>

    <!-- Same small tab rhythm as policy page -->
    <g transform="translate(24 104)">
      <rect class="tabs-bg" x="0" y="0" width="174" height="32" rx="4"/>
      <rect class="tab-active" x="2" y="2" width="72" height="28" rx="3"/>
      <text x="17" y="21" class="tab-active-text">결제 내역</text>
      <text x="92" y="21" class="tab-text">환불/취소</text>
    </g>

    <!-- Summary strip, compact so it blends with table admin UI -->
    <g transform="translate(24 154)">
      <rect class="card" x="0" y="0" width="270" height="82" rx="6"/>
      <text x="18" y="27" class="metric-label">오늘 결제 금액</text>
      <text x="18" y="58" class="metric-num">₩428,000</text>
      <text x="184" y="58" class="metric-sub">+12.4%</text>

      <rect class="card" x="288" y="0" width="270" height="82" rx="6"/>
      <text x="306" y="27" class="metric-label">승인 완료</text>
      <text x="306" y="58" class="metric-num">38건</text>
      <text x="384" y="58" class="metric-sub">구독 18 · 크레딧 20</text>

      <rect class="card" x="576" y="0" width="270" height="82" rx="6"/>
      <text x="594" y="27" class="metric-label">환불/취소</text>
      <text x="594" y="58" class="metric-num">3건</text>
      <text x="650" y="58" class="metric-sub">확인 필요 1건</text>

      <rect class="card" x="864" y="0" width="270" height="82" rx="6"/>
      <text x="882" y="27" class="metric-label">크레딧 충전</text>
      <text x="882" y="58" class="metric-num">12,400개</text>
      <text x="1010" y="58" class="metric-sub">이번 달 누적</text>
    </g>

    <!-- Main table card: search controls integrated like policy page toolbar -->
    <g transform="translate(24 262)">
      <rect class="card" x="0" y="0" width="1136" height="592" rx="6"/>

      <g transform="translate(20 20)">
        <text x="0" y="17" class="card-title">결제 내역</text>
        <text x="0" y="38" class="card-sub">Toss 결제 승인, 구독 결제, 크레딧 충전 내역입니다.</text>

        <rect class="input" x="378" y="0" width="104" height="38" rx="4"/>
        <text x="397" y="24" class="select-text">전체</text>
        <text x="462" y="24" fill="#334155" style="font:12px Arial">⌄</text>

        <rect class="input" x="492" y="0" width="134" height="38" rx="4"/>
        <text x="514" y="24" class="select-text">전체 상태</text>
        <text x="604" y="24" fill="#334155" style="font:12px Arial">⌄</text>

        <rect class="input" x="636" y="0" width="186" height="38" rx="4"/>
        <text x="654" y="24" class="select-text">2026.06.01 - 06.08</text>

        <rect class="input" x="832" y="0" width="254" height="38" rx="4"/>
        <text x="850" y="24" class="input-text">이메일, 주문번호, 결제키 검색</text>

        <rect class="input" x="1096" y="0" width="64" height="38" rx="4"/>
        <text x="1114" y="24" class="select-text">20</text>
        <text x="1142" y="24" fill="#334155" style="font:12px Arial">⌄</text>
        <text x="1168" y="24" class="card-sub">개씩 보기</text>
      </g>

      <line class="line" x1="0" y1="84" x2="1136" y2="84"/>

      <rect class="head-row" x="0" y="84" width="1136" height="42"/>
      <text x="30" y="111" class="th">결제일</text>
      <text x="152" y="111" class="th">사용자</text>
      <text x="362" y="111" class="th">상품</text>
      <text x="548" y="111" class="th">금액</text>
      <text x="690" y="111" class="th">상태</text>
      <text x="812" y="111" class="th">결제수단</text>
      <text x="1010" y="111" class="th">관리</text>

      <!-- rows -->
      <g transform="translate(0 126)">
        <rect x="0" y="0" width="1136" height="58" fill="#eff6ff"/>
        <text x="30" y="23" class="td">2026.06.08</text>
        <text x="30" y="42" class="td-muted">14:22</text>
        <text x="152" y="23" class="td">kim@garm.kr</text>
        <text x="152" y="42" class="mono">usr_92ad</text>
        <text x="362" y="23" class="td">Pro 구독</text>
        <text x="362" y="42" class="td-muted">subscription</text>
        <text x="548" y="32" class="td">₩2,900</text>
        <rect x="690" y="17" width="68" height="24" rx="12" fill="#dcfce7"/>
        <text x="712" y="33" class="chip" fill="#166534">승인</text>
        <text x="812" y="32" class="td">카드</text>
        <rect class="outline" x="1010" y="14" width="62" height="30" rx="4"/>
        <text x="1031" y="34" class="outline-text">상세</text>
        <rect class="outline" x="1078" y="14" width="62" height="30" rx="4"/>
        <text x="1097" y="34" class="outline-text">영수증</text>
      </g>

      <g transform="translate(0 184)">
        <line class="line" x1="0" y1="0" x2="1136" y2="0"/>
        <text x="30" y="23" class="td">2026.06.08</text>
        <text x="30" y="42" class="td-muted">13:10</text>
        <text x="152" y="23" class="td">lee@example.com</text>
        <text x="152" y="42" class="mono">usr_72fa</text>
        <text x="362" y="23" class="td">500 Credits</text>
        <text x="362" y="42" class="td-muted">credit</text>
        <text x="548" y="32" class="td">₩20,000</text>
        <rect x="690" y="17" width="68" height="24" rx="12" fill="#dcfce7"/>
        <text x="712" y="33" class="chip" fill="#166534">승인</text>
        <text x="812" y="32" class="td">간편결제</text>
        <rect class="outline" x="1010" y="14" width="62" height="30" rx="4"/>
        <text x="1031" y="34" class="outline-text">상세</text>
        <rect class="outline" x="1078" y="14" width="62" height="30" rx="4"/>
        <text x="1097" y="34" class="outline-text">영수증</text>
      </g>

      <g transform="translate(0 242)">
        <line class="line" x1="0" y1="0" x2="1136" y2="0"/>
        <text x="30" y="23" class="td">2026.06.08</text>
        <text x="30" y="42" class="td-muted">11:35</text>
        <text x="152" y="23" class="td">park@garim.kr</text>
        <text x="152" y="42" class="mono">usr_a11c</text>
        <text x="362" y="23" class="td">Studio 구독</text>
        <text x="362" y="42" class="td-muted">subscription</text>
        <text x="548" y="32" class="td">₩19,800</text>
        <rect x="690" y="17" width="68" height="24" rx="12" fill="#fef3c7"/>
        <text x="712" y="33" class="chip" fill="#92400e">대기</text>
        <text x="812" y="32" class="td">카드</text>
        <rect class="outline" x="1010" y="14" width="62" height="30" rx="4"/>
        <text x="1031" y="34" class="outline-text">상세</text>
        <rect class="outline" x="1078" y="14" width="62" height="30" rx="4"/>
        <text x="1097" y="34" class="outline-text">영수증</text>
      </g>

      <g transform="translate(0 300)">
        <line class="line" x1="0" y1="0" x2="1136" y2="0"/>
        <text x="30" y="23" class="td">2026.06.07</text>
        <text x="30" y="42" class="td-muted">18:04</text>
        <text x="152" y="23" class="td">choi@example.com</text>
        <text x="152" y="42" class="mono">usr_5c21</text>
        <text x="362" y="23" class="td">100 Credits</text>
        <text x="362" y="42" class="td-muted">credit</text>
        <text x="548" y="32" class="td">₩5,000</text>
        <rect x="690" y="17" width="68" height="24" rx="12" fill="#fee2e2"/>
        <text x="712" y="33" class="chip" fill="#991b1b">취소</text>
        <text x="812" y="32" class="td">카드</text>
        <rect class="outline" x="1010" y="14" width="62" height="30" rx="4"/>
        <text x="1031" y="34" class="outline-text">상세</text>
        <rect class="outline" x="1078" y="14" width="62" height="30" rx="4"/>
        <text x="1097" y="34" class="outline-text">영수증</text>
      </g>

      <!-- lightweight expanded detail row instead of separate panel -->
      <g transform="translate(0 358)">
        <line class="line" x1="0" y1="0" x2="1136" y2="0"/>
        <rect x="20" y="18" width="1096" height="92" rx="6" fill="#f8fafc" stroke="#e5e7eb"/>
        <text x="40" y="48" class="th">선택 결제 상세</text>
        <text x="164" y="48" class="td-muted">주문번호</text>
        <text x="224" y="48" class="mono">ord_20260608_1422</text>
        <text x="424" y="48" class="td-muted">결제 키</text>
        <text x="476" y="48" class="mono">pay_8fb2...91ac</text>
        <text x="660" y="48" class="td-muted">상품</text>
        <text x="700" y="48" class="td">Pro 구독 · 50 크레딧</text>
        <rect class="btn" x="956" y="28" width="92" height="34" rx="5"/>
        <text x="980" y="50" class="btn-text">환불 처리</text>
        <rect class="outline" x="1056" y="28" width="80" height="34" rx="5"/>
        <text x="1078" y="50" class="outline-text">닫기</text>
      </g>

      <line class="line" x1="0" y1="540" x2="1136" y2="540"/>
      <text x="30" y="568" class="td-muted">1-20 / 126</text>
      <rect class="outline" x="1002" y="550" width="58" height="32" rx="4"/>
      <text x="1020" y="571" class="outline-text">이전</text>
      <rect class="outline" x="1068" y="550" width="58" height="32" rx="4"/>
      <text x="1086" y="571" class="outline-text">다음</text>
    </g>
  </g>
</svg>
